<svg xmlns="http://www.w3.org/2000/svg" viewBox="0 0 60 75" x="0px" y="0px"><path d="M45,0A15.044,15.044,0,0,0,31.561,8.361,14.991,14.991,0,0,0,6,19v6h.014c0,.056-.014.11-.014.167a3.806,3.806,0,0,0,2.937,3.7l.372,2.223a8.028,8.028,0,0,0,3.408,5.317l.585.4c.589.405,1.25.853,1.96,1.284l-.043.433L7.325,41.141A9.959,9.959,0,0,0,.469,49.963L.006,56.809A3.01,3.01,0,0,0,3.018,60H38.982a3.011,3.011,0,0,0,3.012-3.2l-.463-6.839a9.96,9.96,0,0,0-6.855-8.823l-7.894-2.616-.044-.433c.711-.431,1.372-.879,1.96-1.284l.584-.4a8.026,8.026,0,0,0,3.409-5.317l.372-2.223a3.808,3.808,0,0,0,2.593-2.152A14.837,14.837,0,0,0,45,30,15,15,0,0,0,45,0ZM21,6A13.015,13.015,0,0,1,34,19v2.834a3.836,3.836,0,0,0-.871-.354,4.315,4.315,0,0,0-3.419-3.749,18.612,18.612,0,0,1-7.372-2.34,2.49,2.49,0,0,0-2.676,0,18.613,18.613,0,0,1-7.371,2.34,4.314,4.314,0,0,0-3.42,3.749A3.836,3.836,0,0,0,8,21.834V19A13.015,13.015,0,0,1,21,6Zm3.83,33.1.154,1.538c.008.13.016.253.016.383a4,4,0,0,1-8,0c0-.13.008-.253.015-.371l.156-1.55A9.434,9.434,0,0,0,21,40,9.442,9.442,0,0,0,24.83,39.1Zm14.7,11L40,56.932a.993.993,0,0,1-.271.748,1.012,1.012,0,0,1-.745.32H3.018a1.012,1.012,0,0,1-.745-.32A.988.988,0,0,1,2,56.938L2.465,50.1a7.969,7.969,0,0,1,5.488-7.058L15.012,40.7c-.005.106-.012.211-.012.32a6,6,0,0,0,12,0c0-.1,0-.206-.01-.319l7.058,2.338A7.969,7.969,0,0,1,39.535,50.1ZM32.2,26.967a1,1,0,0,0-.986.835l-.495,2.959a6.02,6.02,0,0,1-2.555,3.989l-.6.41C25.823,36.358,23.439,38,21,38s-4.823-1.642-6.564-2.84l-.6-.41a6.022,6.022,0,0,1-2.554-3.989l-.5-2.959a1,1,0,0,0-.986-.835,1.8,1.8,0,0,1,0-3.6,1,1,0,0,0,1-1,2.529,2.529,0,0,1,1.773-2.654,20.441,20.441,0,0,0,8.154-2.628.49.49,0,0,1,.546,0,20.441,20.441,0,0,0,8.155,2.628A2.529,2.529,0,0,1,31.2,22.366a1,1,0,0,0,1,1,1.8,1.8,0,0,1,0,3.6ZM45,28a12.863,12.863,0,0,1-9-3.645V19a14.9,14.9,0,0,0-3-8.966A13,13,0,1,1,45,28Z"/><path d="M41.514,15.257a1,1,0,0,0,1-.149,4,4,0,1,0-5.048-.01,1,1,0,0,0,1,.153A4.219,4.219,0,0,1,40,15,4.03,4.03,0,0,1,41.514,15.257Zm-3.128-2.073a2,2,0,1,1,3.223.005A6.508,6.508,0,0,0,40,13,6.734,6.734,0,0,0,38.386,13.184Z"/><path d="M50,8a4,4,0,0,0-2.53,7.1,1,1,0,0,0,1,.153A4.219,4.219,0,0,1,50,15a4.03,4.03,0,0,1,1.514.257,1,1,0,0,0,1-.149A4,4,0,0,0,50,8Zm1.609,5.189A6.508,6.508,0,0,0,50,13a6.734,6.734,0,0,0-1.614.184,2,2,0,1,1,3.223.005Z"/><path d="M50.316,18.052a1,1,0,0,0-1.264.632C49.044,18.707,48.242,21,45,21c-3.175,0-4.014-2.213-4.054-2.324a1,1,0,0,0-1.894.64C39.1,19.467,40.333,23,45,23s5.9-3.533,5.948-3.684A1,1,0,0,0,50.316,18.052Z"/><path d="M24.359,31.073a1,1,0,0,0-1.292.567,2.25,2.25,0,0,1-4.133,0,1,1,0,0,0-1.871.711,4.251,4.251,0,0,0,7.874,0A1,1,0,0,0,24.359,31.073Z"/><text x="0" y="75" fill="#000000" font-size="5px" font-weight="bold" font-family="'Helvetica Neue', Helvetica, Arial-Unicode, Arial, Sans-serif">Created by Juicy Fish</text><text x="0" y="80" fill="#000000" font-size="5px" font-weight="bold" font-family="'Helvetica Neue', Helvetica, Arial-Unicode, Arial, Sans-serif">from the Noun Project</text></svg>